<svg width="183" height="135" viewBox="0 0 183 135" fill="none" xmlns="http://www.w3.org/2000/svg">
<path opacity="0.1" d="M12.516 54.1495C16.3832 62.8842 11.449 72.9457 5.64997 80.5299C3.70522 83.0684 1.56747 85.7258 1.29469 88.9212C0.969944 92.8182 3.60872 96.4015 6.74111 98.7434C12.451 103.011 20.2523 104.331 27.0478 102.178C32.9211 100.323 37.859 96.1157 43.7824 94.4196C53.6954 91.5823 64.1949 96.2865 72.6772 102.145C78.6803 106.29 85.1102 111.33 92.3474 110.445C97.4431 109.822 101.767 106.246 104.699 102.034C106.115 99.9922 107.347 97.7228 109.41 96.3495C110.637 95.5331 112.077 95.1007 113.519 94.7926C126.676 91.9813 140.636 98.8436 153.618 95.3141C162.386 92.9295 169.379 85.9986 173.725 78.021C178.071 70.0434 180.101 61.0322 181.791 52.1045C182.992 45.76 183.988 38.9144 181.235 33.0764C178.314 26.9007 171.553 23.1578 164.76 22.4582C157.966 21.7586 151.15 23.6978 144.891 26.433C137.069 29.8531 129.404 34.6407 120.866 34.6574C115.052 34.6686 109.509 32.4306 103.949 30.7364C94.6373 27.8916 84.9878 26.4776 75.3512 25.173C66.1303 23.9242 56.8204 22.7607 47.5438 23.5029C40.9803 24.0244 35.185 26.5333 28.8163 27.6931C24.6651 28.4502 20.4936 27.8786 16.4203 29.1609C11.41 30.729 6.24379 34.3679 5.96729 40.0927C5.70564 45.5354 10.4636 49.5122 12.516 54.1495Z" fill="#44A3EA"/>
<g opacity="0.5">
<path opacity="0.5" d="M128.732 33.9995C127.804 34.2667 126.651 34.957 126.087 36.8516C124.974 40.563 127.549 43.1016 126.705 46.9558C126.474 47.9806 126.032 48.9458 125.406 49.7895C124.373 51.1905 123.248 51.8548 122.161 52.8365C120.778 54.0903 119.788 55.7168 119.308 57.5202C118.783 59.5108 118.739 61.5978 119.18 63.6087C119.568 65.29 120.229 66.5129 120.804 67.8768C121.52 69.6171 122.079 71.4182 122.474 73.2583C122.694 74.1526 122.818 75.0675 122.845 75.988C122.864 77.1441 122.684 78.4003 122.508 79.6399L120.936 90.6089C120.726 92.0693 120.515 93.5538 120.507 94.9437C120.496 96.5489 120.754 97.9277 121.01 99.273C121.567 102.175 122.155 105.187 123.422 106.718C124.69 108.249 126.839 107.718 128.162 104.593C129.42 101.624 129.446 97.653 130.556 94.4761C132.304 89.4658 135.781 88.7977 137.709 84.0231C139.565 79.4432 138.993 73.8168 139.936 68.5986C140.608 64.8557 142.039 61.4413 142.887 57.7429C144.106 52.4152 143.985 46.8853 143.011 42.7917C142.037 38.698 140.289 35.8867 138.359 33.7545C137.54 32.8508 136.666 32.0473 135.638 31.9675C134.545 31.884 133.597 33.2665 132.512 33.6729C131.253 34.1424 129.999 33.6395 128.732 33.9995Z" fill="#44A3EA"/>
<path opacity="0.5" d="M134.649 32.2275C134.649 32.2275 132.794 79.5994 125.013 107.535" stroke="#535461" stroke-width="2" stroke-miterlimit="10"/>
<path opacity="0.5" d="M126.039 37.084C126.039 37.084 134.349 44.657 132.781 59.0868" stroke="#535461" stroke-width="2" stroke-miterlimit="10"/>
<path opacity="0.5" d="M119.058 58.6318C119.058 58.6318 132.715 61.3782 131.702 69.547" stroke="#535461" stroke-width="2" stroke-miterlimit="10"/>
<path opacity="0.5" d="M143.027 42.6787C143.027 42.6787 137.503 47.5165 132.578 61.2188" stroke="#535461" stroke-width="2" stroke-miterlimit="10"/>
<path opacity="0.5" d="M137.625 84.0916C137.625 84.0916 133.855 87.0607 130.828 76.7041" stroke="#535461" stroke-width="2" stroke-miterlimit="10"/>
<path opacity="0.5" d="M121.359 90.1318C121.359 90.1318 129.049 89.1279 129.758 84.3105" stroke="#535461" stroke-width="2" stroke-miterlimit="10"/>
</g>
<path d="M147.32 2.22554C145.416 2.5076 143.126 3.38905 142.185 6.11134C140.339 11.4483 145.954 15.4881 144.661 21.0644C144.273 22.7345 143.317 24.0929 142.309 25.0838C140.335 27.0249 138.088 27.8673 135.954 29.1849C133.82 30.5024 131.604 32.5696 130.604 35.7447C129.641 38.7992 130.058 42.1746 131.058 44.6965C132.059 47.2184 133.573 49.0982 134.926 51.1728C136.573 53.7269 137.951 56.4452 139.036 59.284C139.52 60.5329 139.964 61.8504 140.122 63.3461C140.296 65.0515 140.075 66.8867 139.856 68.6831L137.904 84.6419C137.644 86.7667 137.383 88.9285 137.533 90.9753C137.702 93.3376 138.399 95.3974 139.088 97.409C140.573 101.748 142.161 106.255 144.957 108.658C147.754 111.061 152.148 110.536 154.512 106.09C156.763 101.857 156.35 96.021 158.268 91.4745C161.293 84.3097 168.41 83.7308 171.833 76.9297C175.12 70.4051 173.281 62.0583 174.6 54.476C175.547 49.0425 178.106 44.1862 179.425 38.84C181.318 31.1371 180.414 22.9813 177.909 16.8372C175.404 10.693 171.455 6.34515 167.209 2.97709C165.409 1.55007 163.498 0.260375 161.367 0.0228476C159.096 -0.229525 157.285 1.68183 155.097 2.16245C152.555 2.73214 149.901 1.84327 147.32 2.22554Z" fill="#44A3EA"/>
<path d="M159.356 0.314453C159.356 0.314453 161.147 69.858 148.341 110.072" stroke="#535461" stroke-width="2" stroke-miterlimit="10"/>
<path d="M142.111 6.44531C142.111 6.44531 160.226 18.5852 158.675 39.6472" stroke="#535461" stroke-width="2" stroke-miterlimit="10"/>
<path d="M130.22 37.3516C130.22 37.3516 158.812 43.0151 157.684 54.923" stroke="#535461" stroke-width="2" stroke-miterlimit="10"/>
<path d="M177.935 16.6992C177.935 16.6992 167.068 23.1681 158.508 42.7623" stroke="#535461" stroke-width="2" stroke-miterlimit="10"/>
<path d="M171.666 77.0443C171.666 77.0443 164.214 80.9672 156.723 65.3535" stroke="#535461" stroke-width="2" stroke-miterlimit="10"/>
<path d="M138.704 84.0124C138.704 84.0124 154.502 83.4446 155.405 76.4375" stroke="#535461" stroke-width="2" stroke-miterlimit="10"/>
<path opacity="0.1" d="M89.8219 116.137C133.652 116.137 169.184 112.724 169.184 108.514C169.184 104.304 133.652 100.891 89.8219 100.891C45.9915 100.891 10.46 104.304 10.46 108.514C10.46 112.724 45.9915 116.137 89.8219 116.137Z" fill="#44A3EA"/>
<path d="M11.7052 99.4395C11.7052 99.4395 13.2603 101.481 10.9871 104.543C8.71388 107.604 6.83964 110.206 7.60604 112.119C7.60604 112.119 11.0353 106.417 13.8263 106.337C16.6172 106.257 14.7764 102.869 11.7052 99.4395Z" fill="#44A3EA"/>
<path opacity="0.1" d="M11.7048 99.4395C11.8403 99.6361 11.9471 99.8511 12.0221 100.078C14.7462 103.277 16.1955 106.263 13.579 106.339C11.1407 106.409 8.2161 110.768 7.51465 111.871C7.53779 111.956 7.56568 112.039 7.59816 112.121C7.59816 112.121 11.0275 106.419 13.8184 106.339C16.6093 106.259 14.7759 102.869 11.7048 99.4395Z" fill="black"/>
<path d="M14.5957 102.032C14.5957 102.748 14.516 103.331 14.4102 103.331C14.3044 103.331 14.2246 102.75 14.2246 102.032C14.2246 101.314 14.3248 101.661 14.4232 101.661C14.5215 101.661 14.5957 101.316 14.5957 102.032Z" fill="#FFD037"/>
<path d="M15.5854 102.886C14.9564 103.229 14.4089 103.442 14.3625 103.348C14.3161 103.253 14.7856 102.912 15.4147 102.57C16.0438 102.229 15.7951 102.477 15.8434 102.57C15.8916 102.663 16.2164 102.54 15.5854 102.886Z" fill="#FFD037"/>
<path d="M3.48976 99.4395C3.48976 99.4395 1.9347 101.481 4.20791 104.543C6.48112 107.604 8.34793 110.206 7.60566 112.119C7.60566 112.119 4.17636 106.417 1.38542 106.337C-1.40553 106.257 0.42046 102.869 3.48976 99.4395Z" fill="#44A3EA"/>
<path opacity="0.1" d="M3.48964 99.4395C3.35413 99.6361 3.24729 99.8511 3.17232 100.078C0.448179 103.277 -1.00111 106.263 1.6154 106.339C4.05377 106.409 6.97832 110.768 7.67977 111.871C7.65662 111.956 7.62874 112.039 7.59626 112.121C7.59626 112.121 4.16696 106.419 1.37602 106.339C-1.41492 106.259 0.420344 102.869 3.48964 99.4395Z" fill="black"/>
<path d="M1.09375 111.853C1.09375 111.853 5.44161 111.72 6.75172 110.786C8.06183 109.853 13.4322 108.745 13.7643 110.23C14.0965 111.714 20.2982 117.673 15.3899 117.712C10.4816 117.751 3.9849 116.947 2.67665 116.151C1.36839 115.355 1.09375 111.853 1.09375 111.853Z" fill="#A8A8A8"/>
<path opacity="0.2" d="M15.4791 117.2C10.5708 117.239 4.07407 116.435 2.76582 115.639C1.76932 115.032 1.3722 112.855 1.24045 111.852H1.0957C1.0957 111.852 1.37034 115.359 2.6786 116.155C3.98685 116.951 10.4836 117.756 15.3993 117.717C16.817 117.706 17.3051 117.201 17.2791 116.456C17.0694 116.906 16.5331 117.189 15.4791 117.2Z" fill="black"/>
<path d="M57.6846 83.6914C57.6846 83.6914 79.4424 69.7905 94.4846 69.7905C94.4846 69.7905 112.594 66.9698 132.292 71.7371C151.99 76.5043 159.266 82.6856 164.728 80.8707L141.784 81.5425L57.6846 83.6914Z" fill="#8CD0F3"/>
<path opacity="0.1" d="M57.6846 83.6914C57.6846 83.6914 79.4424 69.7905 94.4846 69.7905C94.4846 69.7905 112.594 66.9698 132.292 71.7371C151.99 76.5043 159.266 82.6856 164.728 80.8707L141.784 81.5425L57.6846 83.6914Z" fill="#8CD0F3"/>
<path d="M160.239 104.967H27.543L31.1912 90.35L53.7563 84.3506L160.239 87.149V104.967Z" fill="#121C3F"/>
<path d="M167.224 95.8333V100.498C167.224 100.498 163.284 103.356 162.926 105.594C162.926 105.594 157.285 107.027 155.674 107.027C155.528 107.027 155.368 107.027 155.201 107.043C155.453 106.368 155.649 105.674 155.789 104.967C156.184 102.983 156.135 100.937 155.644 98.9748C155.153 97.0127 154.232 95.184 152.95 93.6204C151.667 92.0568 150.053 90.7972 148.225 89.9323C146.396 89.0674 144.399 88.6188 142.376 88.6188C140.354 88.6188 138.357 89.0674 136.528 89.9323C134.7 90.7972 133.086 92.0568 131.803 93.6204C130.52 95.184 129.6 97.0127 129.109 98.9748C128.618 100.937 128.568 102.983 128.964 104.967C129.153 105.923 129.445 106.856 129.834 107.75H122.185C122.185 107.75 122.114 107.775 121.999 107.825C121.589 108.01 120.622 108.5 120.483 109.27H57.0912L55.7922 109.259C56.0683 108.796 56.3162 108.316 56.5345 107.823C56.9418 106.909 57.2444 105.952 57.4364 104.971C57.8137 103.096 57.794 101.163 57.3785 99.2963C56.963 97.4296 56.161 95.6707 55.0242 94.133C53.8873 92.5953 52.4409 91.3129 50.7781 90.3684C49.1152 89.4239 47.273 88.8383 45.37 88.6494C43.467 88.4605 41.5456 88.6725 39.7295 89.2716C37.9135 89.8708 36.2432 90.8438 34.8262 92.128C33.4092 93.4122 32.2771 94.9791 31.5027 96.7276C30.7284 98.4762 30.329 100.368 30.3304 102.28C30.3304 103.181 30.4186 104.081 30.5939 104.965C30.893 106.462 31.4412 107.899 32.2158 109.215C31.3102 108.994 29.3339 108.367 29.3339 108.367C29.3339 108.367 20.9184 107.472 18.7695 105.583L19.0943 105.358L20.4712 104.418L19.844 102.005C19.7683 101.904 19.7059 101.793 19.6584 101.675C19.4914 101.272 19.3448 100.524 19.9349 99.5854C20.8293 98.1529 20.3821 93.0497 20.3821 93.0497C20.3821 93.0497 32.5591 84.6342 56.5549 82.7526C56.5549 82.7526 57.1283 83.1979 58.3122 83.2907C59.1139 83.3557 60.1958 83.2573 61.5708 82.7526C61.5708 82.7526 63.5397 83.647 71.9626 78.8129C71.9626 78.8129 86.2903 68.963 105.094 69.8611C105.094 69.8611 124.434 68.6958 140.909 75.057C148.008 77.796 153.41 79.2565 157.261 80.0284C160.816 80.7429 163.049 80.8746 164.071 80.8857H164.093C164.428 80.8857 164.626 80.8857 164.697 80.8857H164.726C164.726 80.8857 164.726 83.0179 164.839 85.5361V85.5491C164.88 86.4249 164.936 87.3472 165.014 88.2435V88.2992C165.229 90.7951 165.6 93.0627 166.244 93.5118L167.224 95.8333Z" fill="#2856B8"/>
<path d="M22.3169 92.8468C22.3169 92.8468 27.7114 88.6381 34.4271 89.5344C34.4271 89.5344 28.3164 94.3703 25.5625 94.0567L25.093 93.654L22.3095 93.8099C22.3095 93.8099 21.8938 93.1604 22.3169 92.8468Z" fill="#8CD0F3"/>
<path opacity="0.2" d="M27.5542 100.128V102.613C27.5542 102.613 27.3686 104.986 25.2253 105.075L19.1016 105.378L20.4766 104.437L19.8494 102.024C19.7734 101.924 19.711 101.813 19.6638 101.696C20.2205 101.184 21.5325 100.319 24.201 100.134L27.5542 100.128Z" fill="white"/>
<path opacity="0.2" d="M56.0498 89.7139L60.7502 89.5283C60.7502 89.5283 58.8482 91.0277 57.5047 91.1632C56.1611 91.2986 56.0498 89.7139 56.0498 89.7139Z" fill="white"/>
<path opacity="0.2" d="M65.9443 103.973C65.9443 103.973 108.452 98.0626 118.727 99.9424C118.727 99.9424 121.748 100.145 122.891 101.353C124.035 102.561 122.891 101.778 122.891 101.778L65.9443 103.973Z" fill="white"/>
<path opacity="0.5" d="M89.7402 87.3847C89.7402 87.3847 90.2784 86.3771 91.1506 86.3548L96.8141 86.0635C96.8141 86.0635 96.725 86.8466 95.7174 87.1379L89.7402 87.3847Z" fill="#18218A"/>
<path opacity="0.5" d="M122.511 85.6832C122.511 85.6832 123.049 84.6755 123.921 84.6533L129.585 84.3545C129.585 84.3545 129.496 85.1376 128.488 85.4289L122.511 85.6832Z" fill="#18218A"/>
<path d="M103.173 71.8768L98.827 83.2744L83.1577 83.2911H79.1234H75.6143H72.5803H69.1436C69.1436 83.2911 71.2368 81.7546 74.6085 79.7969C75.7219 79.1474 76.9857 78.4534 78.357 77.7556C79.6189 77.1099 80.9772 76.4567 82.4043 75.8369C83.5177 75.347 84.6904 74.8756 85.8892 74.4358C91.3245 72.4484 97.4334 71.1142 103.173 71.8768Z" fill="#8CD0F3"/>
<path d="M127.795 80.199C127.795 80.199 121.248 81.1696 115 81.8877C112.612 82.1623 110.268 82.3999 108.349 82.5316L108.082 82.5502C107.34 82.5984 106.651 82.63 106.067 82.6411C105.139 82.6578 104.445 82.617 104.098 82.5056L105.903 71.6035C105.903 71.6035 108.13 71.6276 111.424 71.7891L112.144 71.8281C112.829 71.867 113.55 71.9116 114.304 71.9635C115.38 72.0377 116.514 72.1268 117.683 72.2344C123.328 72.7522 129.723 73.6819 133.772 75.3557C142.388 78.9223 127.795 80.199 127.795 80.199Z" fill="#8CD0F3"/>
<path d="M157.967 85.6834V88.5931C157.967 88.5931 153.267 88.6599 154.274 87.7209C154.927 87.0974 155.519 86.414 156.043 85.6797L157.967 85.6834Z" fill="#8CD0F3"/>
<path d="M165.01 88.2953L161.193 88.5941V85.0961C161.193 85.0961 162.962 82.6114 164.73 85.3652L164.832 85.5266L165.01 88.2953Z" fill="#8CD0F3"/>
<path d="M44.0191 113.204C50.0525 113.204 54.9435 108.313 54.9435 102.28C54.9435 96.2465 50.0525 91.3555 44.0191 91.3555C37.9857 91.3555 33.0947 96.2465 33.0947 102.28C33.0947 108.313 37.9857 113.204 44.0191 113.204Z" fill="#182A7C"/>
<path d="M52.7817 102.271C52.7857 104.525 51.9237 106.695 50.3737 108.332C48.8238 109.968 46.7044 110.947 44.4533 111.066C42.2022 111.185 39.9915 110.435 38.2777 108.971C36.564 107.506 35.4782 105.439 35.2446 103.197C35.0111 100.955 35.6476 98.7091 37.0227 96.9229C38.3979 95.1367 40.4066 93.9469 42.6338 93.5993C44.8611 93.2517 47.1368 93.7729 48.9908 95.0552C50.8448 96.3374 52.1354 98.2828 52.5961 100.489C52.7184 101.075 52.7805 101.672 52.7817 102.271Z" fill="#3F8FFE"/>
<path opacity="0.5" d="M44.0068 109.819C48.1667 109.819 51.539 106.439 51.539 102.269C51.539 98.0984 48.1667 94.7178 44.0068 94.7178C39.8469 94.7178 36.4746 98.0984 36.4746 102.269C36.4746 106.439 39.8469 109.819 44.0068 109.819Z" fill="#18218A"/>
<path d="M46.5264 93.8401V94.1592L44.0194 102.46L42.0078 93.7027C43.5003 93.3548 45.0578 93.4022 46.5264 93.8401Z" fill="#3F8FFE"/>
<path d="M46.5082 110.705C45.0723 111.13 43.5516 111.182 42.0898 110.857L44.0179 102.46L46.5082 110.705Z" fill="#3F8FFE"/>
<path d="M52.7825 102.271C52.7837 103.187 52.6422 104.097 52.3631 104.969H52.3278L44.0273 102.462L52.6117 100.491C52.7285 101.077 52.7857 101.673 52.7825 102.271Z" fill="#3F8FFE"/>
<path d="M44.02 102.46L35.7195 104.967H35.6546C35.1923 103.517 35.1098 101.974 35.4152 100.483L44.02 102.46Z" fill="#3F8FFE"/>
<path d="M44.007 103.232C44.5389 103.232 44.9701 102.801 44.9701 102.269C44.9701 101.737 44.5389 101.306 44.007 101.306C43.4751 101.306 43.0439 101.737 43.0439 102.269C43.0439 102.801 43.4751 103.232 44.007 103.232Z" fill="#182A7C"/>
<path d="M142.309 113.204C148.343 113.204 153.234 108.313 153.234 102.28C153.234 96.2465 148.343 91.3555 142.309 91.3555C136.276 91.3555 131.385 96.2465 131.385 102.28C131.385 108.313 136.276 113.204 142.309 113.204Z" fill="#182A7C"/>
<path d="M151.074 102.271C151.078 104.525 150.216 106.695 148.666 108.332C147.116 109.968 144.996 110.947 142.745 111.066C140.494 111.185 138.283 110.435 136.57 108.971C134.856 107.506 133.77 105.439 133.537 103.197C133.303 100.955 133.94 98.7091 135.315 96.9229C136.69 95.1367 138.699 93.9469 140.926 93.5993C143.153 93.2517 145.429 93.7729 147.283 95.0552C149.137 96.3374 150.427 98.2828 150.888 100.489C151.01 101.075 151.073 101.672 151.074 102.271Z" fill="#3F8FFE"/>
<path opacity="0.5" d="M142.298 109.819C146.458 109.819 149.83 106.439 149.83 102.269C149.83 98.0984 146.458 94.7178 142.298 94.7178C138.138 94.7178 134.766 98.0984 134.766 102.269C134.766 106.439 138.138 109.819 142.298 109.819Z" fill="#18218A"/>
<path d="M144.816 93.8401V94.1592L142.309 102.46L140.298 93.7027C141.79 93.3548 143.348 93.4022 144.816 93.8401Z" fill="#3F8FFE"/>
<path d="M144.799 110.705C143.363 111.13 141.843 111.182 140.381 110.857L142.309 102.46L144.799 110.705Z" fill="#3F8FFE"/>
<path d="M151.074 102.272C151.075 103.187 150.934 104.098 150.655 104.97H150.612L142.31 102.461L150.894 100.49C151.014 101.076 151.074 101.673 151.074 102.272Z" fill="#3F8FFE"/>
<path d="M142.309 102.46L134.009 104.967H133.944C133.481 103.517 133.399 101.974 133.704 100.483L142.309 102.46Z" fill="#3F8FFE"/>
<path d="M142.298 103.232C142.83 103.232 143.261 102.801 143.261 102.269C143.261 101.737 142.83 101.306 142.298 101.306C141.766 101.306 141.335 101.737 141.335 102.269C141.335 102.801 141.766 103.232 142.298 103.232Z" fill="#182A7C"/>
<path opacity="0.2" d="M78.3587 77.7666L75.6141 83.2984H72.5801L74.6083 79.8079C75.7273 79.1584 76.9873 78.4662 78.3587 77.7666Z" fill="white"/>
<path opacity="0.2" d="M85.8897 74.4463L83.1563 83.2923H79.1221L82.4066 75.8436C83.5275 75.3574 84.6928 74.8898 85.8897 74.4463Z" fill="white"/>
<path opacity="0.2" d="M114.308 71.9734L108.353 82.534L108.086 82.5526C107.343 82.6008 106.655 82.6324 106.07 82.6435L111.428 71.8008L112.148 71.8397C112.823 71.8769 113.551 71.9214 114.308 71.9734Z" fill="white"/>
<path opacity="0.2" d="M69.2473 83.2607L65.8477 106.678L94.2414 106.056L98.9029 83.3628L69.2473 83.2607Z" stroke="white" stroke-miterlimit="10"/>
<path opacity="0.5" d="M122.001 107.817C121.591 108.003 120.624 108.493 120.485 109.263H57.091L55.792 109.252C56.0681 108.788 56.316 108.309 56.5343 107.815L122.001 107.817Z" fill="#18218A"/>
<path d="M67.1932 124.739C67.6256 124.336 68.032 123.861 68.1581 123.284C68.2843 122.707 68.0375 122.013 67.4845 121.8C66.8666 121.562 66.2041 121.985 65.7031 122.425C65.202 122.865 64.6268 123.353 63.9717 123.26C64.3091 122.954 64.5615 122.566 64.7042 122.133C64.847 121.701 64.8753 121.239 64.7864 120.792C64.7576 120.608 64.6794 120.434 64.56 120.291C64.2167 119.92 63.5932 120.081 63.1831 120.371C61.8841 121.299 61.513 123.067 61.5037 124.667C61.3719 124.09 61.4833 123.488 61.4795 122.896C61.4758 122.304 61.3144 121.649 60.8152 121.33C60.5043 121.163 60.1548 121.081 59.802 121.093C59.2138 121.07 58.5587 121.13 58.1579 121.56C57.6587 122.095 57.7867 122.991 58.2228 123.579C58.6589 124.168 59.3177 124.537 59.9245 124.943C60.4116 125.234 60.8271 125.63 61.14 126.103C61.177 126.169 61.2075 126.239 61.2309 126.311H64.9163C65.7426 125.892 66.5086 125.363 67.1932 124.739Z" fill="#44A3EA"/>
<path d="M144.22 127.861C144.56 127.583 144.808 127.209 144.931 126.788C145.024 126.361 144.842 125.851 144.434 125.695C143.977 125.521 143.489 125.836 143.12 126.157C142.751 126.478 142.326 126.842 141.841 126.773C142.09 126.547 142.277 126.261 142.382 125.942C142.487 125.623 142.508 125.282 142.443 124.953C142.422 124.816 142.364 124.688 142.276 124.582C142.021 124.311 141.563 124.428 141.259 124.641C140.294 125.32 140.025 126.63 140.019 127.81C139.923 127.386 140.004 126.942 140.001 126.511C139.997 126.081 139.878 125.584 139.511 125.357C139.283 125.235 139.027 125.174 138.768 125.181C138.334 125.164 137.852 125.209 137.555 125.526C137.184 125.92 137.282 126.582 137.603 127.011C137.924 127.439 138.41 127.716 138.859 128.016C139.219 128.23 139.526 128.523 139.757 128.872C139.785 128.92 139.807 128.971 139.824 129.024H142.543C143.152 128.714 143.716 128.322 144.22 127.861Z" fill="#44A3EA"/>
<path d="M156.283 133.764C156.623 133.487 156.871 133.113 156.994 132.691C157.086 132.264 156.904 131.754 156.496 131.598C156.04 131.424 155.552 131.739 155.182 132.06C154.813 132.381 154.388 132.745 153.904 132.676C154.153 132.451 154.339 132.165 154.444 131.845C154.55 131.526 154.571 131.186 154.505 130.856C154.484 130.719 154.426 130.591 154.338 130.485C154.084 130.214 153.625 130.331 153.321 130.544C152.356 131.223 152.087 132.534 152.082 133.714C151.985 133.289 152.067 132.845 152.063 132.415C152.059 131.984 151.941 131.487 151.573 131.261C151.345 131.138 151.089 131.077 150.831 131.084C150.397 131.068 149.914 131.112 149.617 131.429C149.246 131.823 149.344 132.485 149.665 132.914C149.986 133.343 150.473 133.619 150.922 133.92C151.282 134.134 151.589 134.426 151.82 134.775C151.847 134.824 151.869 134.875 151.887 134.927H154.605C155.214 134.617 155.779 134.226 156.283 133.764Z" fill="#44A3EA"/>
<path d="M121.409 121.358C121.409 121.358 120.761 121.711 120.466 119.714C120.28 118.415 119.74 115.737 119.386 113.998L119.341 113.778C119.443 113.746 119.543 113.709 119.64 113.666C119.64 113.666 117.577 105.687 118.048 103.92C118.519 102.154 118.048 98.9877 118.048 98.9877L116.81 94.8199C116.81 94.8199 113.745 93.7621 112.566 93.4689C111.388 93.1757 108.087 91.1196 108.087 91.1196C108.143 91.1855 108.197 91.2543 108.246 91.3256L108.114 91.2458C107.874 91.0208 107.656 90.7721 107.465 90.5036C108.123 89.8031 108.55 88.9166 108.686 87.965C109.126 87.1297 109.334 86.1915 109.288 85.2484C109.242 84.3053 108.943 83.392 108.422 82.6039C108.623 82.353 108.776 82.0675 108.873 81.7614C108.913 81.6215 108.93 81.4762 108.924 81.3309C108.945 81.0981 108.895 80.8642 108.779 80.6609C108.664 80.4575 108.489 80.2944 108.278 80.1934C108.137 80.1348 107.986 80.1054 107.833 80.107C107.681 80.1086 107.53 80.1412 107.391 80.2027C107.129 80.3214 106.923 80.5441 106.637 80.6035C106.16 80.7018 105.752 80.3196 105.377 80.0357C104.795 79.6015 104.1 79.3438 103.375 79.2934C103.06 79.2581 102.742 79.3001 102.447 79.4159C102.167 79.5743 101.909 79.7683 101.679 79.993C100.829 80.6777 99.6377 80.8689 98.5707 81.2418C98.3666 81.3124 98.1402 81.4274 98.103 81.613C98.0953 81.6497 98.0953 81.6876 98.103 81.7243C98.0944 81.7715 98.0982 81.8201 98.1142 81.8654C96.1249 82.1994 94.1783 83.7099 94.1783 83.7099L93.8517 84.0124C93.7449 83.9546 93.6236 83.9293 93.5026 83.9395C93.3816 83.9497 93.2662 83.9951 93.1706 84.0699L92.5137 84.5858C92.395 84.6788 92.3143 84.812 92.2869 84.9603C92.2596 85.1087 92.2875 85.2619 92.3653 85.3912L87.5609 89.8448L87.457 89.9413V89.9246C87.457 89.9246 83.7456 92.7434 83.7456 94.7382C83.7456 96.1801 84.8591 97.069 85.4659 97.4531C84.9215 97.9651 84.5101 98.6021 84.2671 99.3088V99.3273V99.3533V99.3737V99.396V99.4145V99.435V99.4535V99.4721V99.4888V99.5055V99.5203V99.537V99.55V99.5704V99.589V99.6001V99.6112V99.6929V99.7152V99.7597V99.7912V99.8228L84.2522 99.9044V99.9378L84.243 99.9935V100.016V100.07V100.109L84.23 100.183L84.2133 100.276V100.294L84.2003 100.372V100.409L84.1854 100.495V100.517L84.1687 100.613V100.656L84.1261 100.899L84.1038 101.031V101.053L84.0797 101.189V101.207L84.0555 101.344V101.356L84.0296 101.5V101.532L84.0036 101.675V101.706L83.9795 101.847V101.864L83.9516 102.024V102.053L83.8885 102.41L83.857 102.595V102.623L83.8254 102.809V102.822L83.7568 103.193V103.224L83.7234 103.41V103.436L83.651 103.827V103.844L83.6139 104.043V104.059L83.5397 104.464V104.49L83.5025 104.69V104.705L83.4246 105.119V105.141L83.3856 105.345V105.36L83.3058 105.78V105.796L83.2669 106V106.017L82.9273 106.436V106.455L82.8865 106.657V106.668L82.803 107.08V107.091L82.7621 107.292V107.303L82.6805 107.696V107.713L82.6415 107.899V107.915L82.5617 108.287V108.3L82.5227 108.485V108.504L82.4448 108.854V108.864L82.4077 109.029V109.046C82.3817 109.157 82.3564 109.264 82.3316 109.368L82.2945 109.521V109.534C82.2698 109.635 82.2456 109.732 82.2221 109.825L82.1869 109.959V109.973L82.1535 110.101C82.005 110.658 81.8751 111.029 81.7823 111.116C81.6884 111.215 81.6146 111.331 81.5652 111.458L81.5504 111.495L81.5355 111.536L81.5225 111.577L81.4613 111.632L81.4483 111.675L81.4372 111.714L81.426 111.759V111.799L81.4168 111.844V111.885C81.4168 111.914 81.4118 111.944 81.4019 111.974V112.011V112.061V112.1V112.15V112.189V112.239V112.278V112.328V112.365C81.4019 112.427 81.4019 112.486 81.4019 112.551C81.4019 112.562 81.4019 112.573 81.4019 112.586C81.4019 112.599 81.4019 112.618 81.4019 112.634C81.4019 112.651 81.4019 112.659 81.4019 112.67C81.4019 112.681 81.4019 112.701 81.4019 112.716C81.4019 112.731 81.4019 112.738 81.4019 112.751C81.4019 112.764 81.4019 112.781 81.4019 112.796V112.829C81.4019 112.844 81.4019 112.859 81.4019 112.874V112.903C81.4019 112.931 81.4019 112.957 81.4019 112.983V113.276V113.317V113.434L81.9586 113.603C81.9586 113.603 82.2388 113.757 82.6712 113.958C82.61 115.83 82.4374 118.365 81.9679 119.916C80.9213 119.97 78.3363 120.079 77.8687 119.892C77.2786 119.656 73.506 119.07 74.6862 121.77C75.1798 122.902 76.2543 123.756 77.3343 124.368C77.2006 124.412 77.0642 124.447 76.926 124.474C75.9648 124.659 75.6976 124.98 75.7347 125.311C75.666 125.867 76.6124 126.489 76.6903 126.528C76.8091 126.587 80.8155 127.233 81.7601 126.938C82.7046 126.643 86.5347 125.94 86.5347 125.94C86.5347 125.94 86.5347 125.897 86.5347 125.823C86.5347 125.823 86.4828 124.668 86.338 123.574C86.7723 123.511 87.2455 123.453 87.7057 123.418C87.7648 123.695 87.8865 123.956 88.0614 124.179C88.2364 124.403 88.4599 124.583 88.7152 124.707C91.25 126.006 92.0758 124.238 92.0758 124.238C92.0758 124.238 95.5032 124.897 97.4183 124.424C97.6187 124.609 97.7894 124.741 97.9101 124.83C98.5317 125.277 100.206 125.583 102.078 125.606C102.576 125.655 103.079 125.641 103.574 125.563C104.4 125.508 105.22 125.38 106.023 125.179C108.278 124.594 108.773 122.497 108.881 121.545C108.97 121.519 109.033 121.427 109.066 121.252C109.111 121.157 109.137 121.055 109.144 120.95C109.194 120.519 109.274 120.092 109.386 119.673L112.169 119.829C113.412 122.085 114.511 123.88 114.511 123.88L116.396 123.644C115.558 122.973 114.823 122.181 114.216 121.295C113.273 119.886 113.273 113.13 113.273 113.13L113.379 109.016V109.059V108.86C113.553 110.079 114.936 113.616 115.092 113.668C115.205 113.705 115.316 113.739 115.426 113.77L115.526 114.034C116.313 116.119 118.31 121.456 118.451 122.299C118.636 123.357 125.996 123.767 127.645 123.238C129.295 122.709 121.409 121.358 121.409 121.358ZM95.1191 97.9912L92.421 102.044C91.4523 100.374 90.4428 98.8374 89.5298 97.8205C91.9236 97.9003 94.683 97.9857 95.1191 97.9912ZM94.709 87.5994C94.8136 87.6488 94.9299 87.6682 95.0449 87.6554C95.1599 87.6426 95.2691 87.5982 95.3604 87.527L95.5905 87.3415C95.7079 87.2502 95.7886 87.1197 95.8175 86.9738C95.8465 86.8279 95.8219 86.6764 95.7482 86.5472L95.8855 86.4118C96.8356 86.2509 97.7732 86.0234 98.6913 85.7307C98.7262 86.5685 98.9616 87.3856 99.3779 88.1134C99.46 88.5792 99.6127 89.0298 99.8307 89.4495C99.4076 89.4143 98.9474 89.3901 98.5076 89.3939C98.1234 89.386 97.7391 89.4102 97.3589 89.4662C95.9449 89.7019 95.7668 92.285 95.7668 92.285C95.7668 92.285 92.9257 93.2834 91.2185 93.3186C91.0021 93.3196 90.7869 93.2877 90.5801 93.224L90.4075 93.2128L90.6395 92.5782C90.6395 92.5782 90.5393 92.6098 90.3741 92.6432C90.4273 92.5627 90.483 92.4811 90.5411 92.3982C91.6212 90.8487 93.4917 88.852 94.709 87.6031V87.5994ZM88.871 118.951C88.6537 119.323 88.4586 119.707 88.2865 120.102C87.6166 120.232 86.7036 120.304 86.2193 119.89C86.0006 119.711 85.7261 119.615 85.4436 119.617L85.4547 119.595C85.7888 118.955 86.0727 117.52 86.2953 116.036C87.3754 116.036 88.4016 115.132 88.4016 115.132L89.7618 115.598L89.8119 115.693L89.8453 115.754L89.8991 115.854L89.9325 115.917L89.9863 116.015L90.0216 116.079L90.0754 116.175L90.1106 116.238L90.1626 116.333L90.1978 116.396L90.2517 116.491L90.2869 116.552L90.3407 116.645L90.3741 116.704L90.428 116.797L90.4614 116.854L90.5133 116.945L90.5467 117.003L90.6005 117.094L90.6321 117.146L90.6859 117.235L90.7174 117.287L90.7712 117.376L90.7991 117.422L90.8548 117.513L90.8752 117.546C90.9717 117.704 91.0607 117.854 91.1517 117.995L91.1647 118.016L91.2166 118.098L91.2389 118.133L91.2853 118.207L91.3113 118.246L91.3539 118.313L91.3799 118.355L91.4189 118.417L91.4467 118.459L91.4838 118.517L91.5098 118.558L91.5432 118.61L91.5692 118.651L91.6007 118.699L91.6267 118.74L91.6564 118.784L91.6824 118.823C90.7536 118.976 89.8099 119.019 88.871 118.951Z" fill="url(#paint0_linear_334_821)"/>
<path d="M126.992 122.904C125.383 123.422 118.2 123.019 118.027 121.976C117.89 121.147 115.943 115.927 115.175 113.886L114.867 113.069L118.603 112.264C118.603 112.264 118.74 112.919 118.929 113.852C119.274 115.556 119.796 118.185 119.981 119.447C120.269 121.401 120.909 121.056 120.909 121.056C120.909 121.056 128.596 122.386 126.992 122.904Z" fill="#FFBDC6"/>
<path d="M106.699 88.9932C106.699 88.9932 106.411 90.7171 108.883 92.3334C111.354 93.9497 109.228 99.7468 109.228 99.7468L107.4 99.8489C106.239 99.914 105.098 99.5265 104.217 98.768C103.336 98.0094 102.784 96.9388 102.675 95.7812C102.675 95.7812 103.709 94.1111 101.812 89.8041L106.699 88.9932Z" fill="#FFBDC6"/>
<path d="M96.0172 86.8721C96.0172 86.8721 92.4599 90.3404 90.8065 92.7305C90.6105 93.0077 90.4314 93.2964 90.2702 93.5952C89.064 95.8944 86.2582 92.1571 87.2287 90.8655L87.8986 90.2401L94.349 84.2277C94.349 84.2277 98.7748 80.7799 101.015 83.2517C103.254 85.7234 96.0172 86.8721 96.0172 86.8721Z" fill="#FFBDC6"/>
<path d="M103.919 91.1531C106.775 91.1531 109.091 88.8376 109.091 85.9814C109.091 83.1251 106.775 80.8096 103.919 80.8096C101.063 80.8096 98.7471 83.1251 98.7471 85.9814C98.7471 88.8376 101.063 91.1531 103.919 91.1531Z" fill="#A66477"/>
<path d="M82.8589 119.627C82.8589 119.627 79.0083 119.857 78.4331 119.627C77.8578 119.397 74.1817 118.824 75.3378 121.468C76.4939 124.112 80.8547 125.203 80.8547 125.203L84.0094 124.398L82.8589 119.627Z" fill="#7679B4"/>
<path opacity="0.05" d="M82.8589 119.627C82.8589 119.627 79.0083 119.857 78.4331 119.627C77.8578 119.397 74.1817 118.824 75.3378 121.468C76.4939 124.112 80.8547 125.203 80.8547 125.203L84.0094 124.398L82.8589 119.627Z" fill="black"/>
<path d="M96.5926 108.307L104.322 111.446L108.718 120.784C108.718 120.784 108.775 124.06 105.903 124.807C103.03 125.555 99.0069 125.21 97.9714 124.462C96.9359 123.714 92.6846 119.29 92.6846 119.29L96.5926 108.307Z" fill="#7679B4"/>
<path opacity="0.05" d="M96.0675 108.307L102.757 110.814L106.563 118.286C106.563 118.286 106.613 120.909 104.127 121.506C101.64 122.104 98.157 121.827 97.2607 121.23C96.3644 120.632 92.6846 117.09 92.6846 117.09L96.0675 108.307Z" fill="black"/>
<path d="M89.4093 119.627C89.4093 119.627 87.3977 120.317 86.5942 119.627C85.7907 118.937 84.3525 119.8 84.3525 119.8L84.9872 123.535C84.9872 123.535 87.8598 122.902 89.413 123.075L89.4093 119.627Z" fill="#FFBDC6"/>
<path opacity="0.05" d="M89.4093 119.627C89.4093 119.627 87.3977 120.317 86.5942 119.627C85.7907 118.937 84.3525 119.8 84.3525 119.8L84.9872 123.535C84.9872 123.535 87.8598 122.902 89.413 123.075L89.4093 119.627Z" fill="black"/>
<path d="M90.5549 115.606L88.7196 114.973C88.7196 114.973 86.708 116.755 85.3794 115.261C84.0507 113.767 86.5855 107.56 86.5855 107.56L89.2856 103.191L91.2396 109.341L93.021 112.329L90.5549 115.606Z" fill="#565388"/>
<path opacity="0.05" d="M90.5549 115.606L88.7196 114.973C88.7196 114.973 86.708 116.755 85.3794 115.261C84.0507 113.767 86.5855 107.56 86.5855 107.56L89.2856 103.191L91.2396 109.341L93.021 112.329L90.5549 115.606Z" fill="black"/>
<path d="M108.085 115.261L112.223 115.834L113.028 119.627L107.914 119.34L108.085 115.261Z" fill="#565388"/>
<path opacity="0.05" d="M108.085 115.261L112.223 115.834L113.028 119.627L107.914 119.34L108.085 115.261Z" fill="black"/>
<path opacity="0.1" d="M102.283 94.459C102.283 94.459 104.007 101.067 109.52 96.298L111.014 115.261C111.014 115.261 109.175 118.191 108.887 120.828C108.599 123.465 103.6 112.663 100.612 112.611C97.6248 112.559 94.665 108.388 94.665 108.388L98.0275 101.462L102.283 94.459Z" fill="black"/>
<path d="M102.34 94.2861C102.34 94.2861 104.064 100.894 109.577 96.1251L111.071 115.088C111.071 115.088 109.232 118.018 108.945 120.655C108.657 123.292 103.658 112.49 100.67 112.438C97.6825 112.386 94.7227 108.215 94.7227 108.215L98.0851 101.289L102.34 94.2861Z" fill="#F2F1F2"/>
<path opacity="0.1" d="M101.419 90.0327C101.419 90.0327 99.0068 89.63 97.6261 89.8601C96.2455 90.0902 96.0748 92.6176 96.0748 92.6176C96.0748 92.6176 92.1667 93.9964 90.8455 93.5455C90.8455 93.5455 84.3506 93.0853 84.3506 95.0393C84.3506 96.9933 86.4215 97.9008 86.4215 97.9008C86.4215 97.9008 95.4383 98.2051 95.5014 98.1884C97.5705 97.6131 95.4438 98.1884 95.4438 98.1884L91.7084 103.82L95.1562 108.589L98.8342 105.889C98.8342 105.889 99.2944 103.36 100.504 102.096C101.365 101.193 102.492 97.1251 103.065 94.8741C103.186 94.4001 103.211 93.9067 103.139 93.4229C103.068 92.939 102.9 92.4741 102.648 92.0554L101.419 90.0327Z" fill="black"/>
<path opacity="0.1" d="M90.8065 92.7306C90.6105 93.0078 90.4314 93.2965 90.2702 93.5953C89.064 95.8945 86.2582 92.1572 87.2287 90.8656L87.8986 90.2402C87.6537 93.2056 90.0679 92.8902 90.8065 92.7306Z" fill="black"/>
<path opacity="0.1" d="M95.4439 97.9637H95.3789C95.3789 97.9637 97.5129 97.3884 95.4439 97.9637Z" fill="black"/>
<path d="M101.247 90.0327C101.247 90.0327 98.835 89.63 97.4543 89.8601C96.0737 90.0902 95.903 92.6176 95.903 92.6176C95.903 92.6176 91.9949 93.9964 90.6737 93.5455L90.9038 92.9127C90.9038 92.9127 87.4003 94.0038 87.8011 90.3203C87.8011 90.3203 84.1807 93.0778 84.1807 95.0319C84.1807 96.9859 86.2497 97.9008 86.2497 97.9008C86.2497 97.9008 95.2665 98.2051 95.3296 98.1884C97.3987 97.6131 95.2721 98.1884 95.2721 98.1884L91.5366 103.82L94.9844 108.589L98.6624 105.889C98.6624 105.889 99.1226 103.36 100.333 102.096C101.194 101.193 102.32 97.1251 102.893 94.8741C103.014 94.4001 103.039 93.9067 102.967 93.4229C102.896 92.939 102.729 92.4741 102.476 92.0554L101.247 90.0327Z" fill="#565388"/>
<path opacity="0.1" d="M113.086 108.71V109.025C113.061 108.922 113.061 108.814 113.086 108.71Z" fill="black"/>
<path opacity="0.1" d="M118.929 113.859C117.708 114.235 116.403 114.247 115.175 113.892L114.867 113.076L118.603 112.271C118.603 112.271 118.738 112.931 118.929 113.859Z" fill="black"/>
<path opacity="0.1" d="M107.742 91.4688C107.742 91.4688 110.96 93.4803 112.11 93.7679C113.261 94.0556 116.249 95.0892 116.249 95.0892L117.455 99.1717C117.455 99.1717 117.915 102.274 117.455 103.996C116.995 105.719 112.686 108.996 112.916 108.478L112.801 113.017C112.801 113.017 112.801 119.625 113.729 120.996C114.656 122.368 111.975 119.645 111.975 119.645C111.975 119.645 108.728 114.847 108.327 111.801C107.926 108.756 108.555 97.0432 108.555 97.0432L107.98 96.2378C107.98 96.2378 109.178 93.1352 107.742 91.4688Z" fill="black"/>
<path d="M107.914 91.4688C107.914 91.4688 111.132 93.4803 112.282 93.7679C113.433 94.0556 116.421 95.0892 116.421 95.0892L117.627 99.1717C117.627 99.1717 118.087 102.274 117.627 103.996C117.166 105.719 119.178 113.537 119.178 113.537C119.178 113.537 117.322 114.394 114.752 113.537C114.58 113.479 112.856 108.998 113.082 108.48L112.967 113.019C112.967 113.019 112.967 119.627 113.895 120.998C114.487 121.865 115.203 122.64 116.022 123.297L114.183 123.527C114.183 123.527 108.89 114.858 108.487 111.818C108.085 108.779 108.718 97.0488 108.718 97.0488L108.142 96.2434C108.142 96.2434 109.35 93.1352 107.914 91.4688Z" fill="#565388"/>
<path d="M92.225 119.055C92.225 119.055 88.3744 113.488 88.547 110.89C88.547 110.89 88.0868 114.453 87.5709 114.683C87.055 114.913 81.8814 113.302 81.8814 113.302C81.8814 113.302 81.6513 111.632 82.2265 111.061C82.8018 110.489 84.5833 99.8544 84.5833 99.8544C84.5833 99.8544 85.2161 96.9818 87.9736 96.8092C90.7311 96.6366 96.9384 110.658 96.9384 110.658C96.9384 110.658 97.8569 119.055 92.225 119.055Z" fill="#7679B4"/>
<path d="M83.1465 111.468C83.1465 111.468 83.2616 119.512 81.8253 120.835C80.389 122.158 86.021 122.847 86.021 122.847C86.021 122.847 85.0449 120.893 85.8484 119.341C86.6519 117.79 87.1696 111.468 87.1696 111.468H83.1465Z" fill="#FFBDC6"/>
<path opacity="0.05" d="M83.432 120.726C83.432 120.726 82.8568 119.29 81.3054 120.438C81.3054 120.438 79.9266 123.656 77.5124 124.116C75.0982 124.577 77.1673 125.955 77.2823 126.013C77.3974 126.07 81.3054 126.703 82.224 126.416C83.1425 126.128 86.878 125.44 86.878 125.44C86.878 125.44 86.7055 121.647 86.1358 121.357C85.5661 121.068 85.8463 123.077 83.432 120.726Z" fill="black"/>
<path d="M83.432 120.835C83.432 120.835 82.8568 119.398 81.3054 120.547C81.3054 120.547 79.9266 123.765 77.5124 124.225C75.0982 124.685 77.1673 126.064 77.2823 126.121C77.3974 126.179 81.3054 126.812 82.224 126.524C83.1425 126.236 86.8799 125.55 86.8799 125.55C86.8799 125.55 86.7073 121.757 86.1376 121.467C85.5679 121.178 85.8463 123.189 83.432 120.835Z" fill="#7679B4"/>
<path d="M94.2529 84.7245C94.7381 85.4783 95.2608 86.2073 95.8191 86.9087C95.8724 86.9709 95.9124 87.0433 95.9369 87.1214C95.9614 87.1996 95.9699 87.2819 95.9617 87.3634C95.9536 87.4448 95.929 87.5238 95.8895 87.5956C95.85 87.6673 95.7964 87.7303 95.7319 87.7808L95.5074 87.9571C95.4432 88.0073 95.3696 88.0442 95.2909 88.0653C95.2122 88.0865 95.1301 88.0916 95.0494 88.0804C94.9687 88.0691 94.8911 88.0417 94.8212 87.9998C94.7513 87.9579 94.6906 87.9024 94.6426 87.8365C94.1397 87.1395 93.5102 86.5434 92.787 86.0792C92.7044 86.0277 92.6353 85.9571 92.5857 85.8734C92.5361 85.7897 92.5074 85.6953 92.5019 85.5981C92.4965 85.501 92.5145 85.4039 92.5544 85.3152C92.5943 85.2264 92.655 85.1486 92.7313 85.0882L93.3715 84.5835C93.4374 84.5315 93.5133 84.4938 93.5944 84.4727C93.6756 84.4516 93.7603 84.4475 93.8431 84.4607C93.926 84.474 94.0051 84.5043 94.0757 84.5497C94.1462 84.5951 94.2066 84.6546 94.2529 84.7245Z" fill="#565388"/>
<path opacity="0.1" d="M107.365 91.0345C106.623 89.9897 106.764 89.1621 106.764 89.1621L101.874 89.9749C102.214 90.7329 102.493 91.5166 102.709 92.3186C103.528 92.5579 104.397 92.5645 105.219 92.3377C106.042 92.1109 106.785 91.6596 107.365 91.0345Z" fill="black"/>
<path d="M103.949 92.3298C106.488 92.3298 108.546 90.2718 108.546 87.7332C108.546 85.1947 106.488 83.1367 103.949 83.1367C101.41 83.1367 99.3525 85.1947 99.3525 87.7332C99.3525 90.2718 101.41 92.3298 103.949 92.3298Z" fill="#FFBDC6"/>
<path opacity="0.1" d="M101.926 85.3385C102.361 85.2661 102.747 85.0119 103.186 84.9896C103.743 84.9618 104.246 85.3181 104.637 85.6855C105.029 86.0529 105.409 86.4723 105.948 86.6319C106.291 86.7125 106.646 86.7363 106.998 86.7024C107.193 86.7123 107.387 86.6632 107.555 86.5614C107.639 86.4833 107.702 86.3859 107.74 86.2775C107.89 85.9318 107.966 85.5586 107.963 85.1818C107.96 84.805 107.879 84.4329 107.723 84.0896C107.68 84.0185 107.662 83.9348 107.671 83.8521C107.688 83.8029 107.715 83.758 107.751 83.7203C108.122 83.2824 108.514 82.8445 108.664 82.3137C108.815 81.783 108.631 81.1298 108.083 80.8941C107.947 80.8353 107.8 80.805 107.651 80.805C107.502 80.805 107.355 80.8353 107.219 80.8941C106.963 81.011 106.764 81.2282 106.476 81.2857C106.011 81.3822 105.612 81.0073 105.248 80.729C104.681 80.3042 104.004 80.0517 103.298 80.0015C102.989 79.9661 102.676 80.0076 102.387 80.1222C102.116 80.2753 101.867 80.4624 101.644 80.6789C100.815 81.3488 99.6531 81.5362 98.6139 81.9018C98.4153 81.9723 98.1945 82.0762 98.1574 82.2729C98.1203 82.4696 98.343 82.6682 98.5656 82.7535C98.7883 82.8389 99.0444 82.8946 99.1929 83.0671C99.3784 83.2898 99.3191 83.6053 99.3525 83.8855C99.4211 84.4422 99.9092 84.7447 100.449 84.9061C100.896 85.049 101.483 85.4127 101.926 85.3385Z" fill="black"/>
<path d="M101.926 85.2221C102.36 85.1497 102.746 84.8955 103.186 84.8732C103.742 84.8454 104.245 85.2017 104.637 85.5691C105.028 85.9365 105.409 86.3559 105.947 86.5155C106.291 86.5961 106.646 86.6199 106.997 86.586C107.193 86.5959 107.387 86.5467 107.554 86.445C107.638 86.3669 107.702 86.2694 107.74 86.161C107.89 85.8154 107.966 85.4422 107.963 85.0654C107.96 84.6885 107.878 84.3165 107.723 83.9732C107.679 83.9021 107.661 83.8184 107.671 83.7357C107.688 83.6865 107.715 83.6416 107.751 83.6039C108.122 83.166 108.513 82.728 108.664 82.1973C108.814 81.6666 108.63 81.0134 108.083 80.7777C107.946 80.7189 107.799 80.6886 107.65 80.6886C107.502 80.6886 107.355 80.7189 107.218 80.7777C106.962 80.8946 106.763 81.1117 106.476 81.1693C106.01 81.2658 105.611 80.8909 105.247 80.6126C104.686 80.1977 104.019 79.9506 103.323 79.9C103.014 79.8646 102.701 79.906 102.412 80.0206C102.142 80.1738 101.892 80.3608 101.67 80.5773C100.84 81.2472 99.6785 81.4346 98.6393 81.8002C98.4407 81.8707 98.2199 81.9746 98.1828 82.1713C98.1457 82.368 98.3684 82.5666 98.591 82.652C98.8137 82.7373 99.0698 82.793 99.2183 82.9656C99.4038 83.1883 99.3444 83.5037 99.3778 83.7839C99.4465 84.3406 99.9346 84.6431 100.475 84.8045C100.896 84.9326 101.482 85.2963 101.926 85.2221Z" fill="#A66477"/>
<path opacity="0.05" d="M98.2168 107.335C98.2168 107.335 101.5 107.892 102.32 109.664C103.14 111.436 108.072 116.231 108.072 116.231" fill="black"/>
<g opacity="0.05">
<path opacity="0.05" d="M87.6853 114.282C87.1676 114.512 81.9958 112.903 81.9958 112.903C81.9323 112.403 81.9379 111.897 82.0125 111.398C81.7156 112.115 81.8808 113.306 81.8808 113.306C81.8808 113.306 87.0525 114.915 87.5703 114.685C87.741 114.609 87.9062 114.167 88.0509 113.609C87.9359 113.967 87.8134 114.23 87.6853 114.282Z" fill="black"/>
<path opacity="0.05" d="M84.6906 99.502C84.6482 99.6187 84.6123 99.7376 84.5829 99.8582C84.5829 99.8582 83.3359 107.305 82.5918 110.064C83.2803 107.825 84.5792 100.164 84.6906 99.502Z" fill="black"/>
<path opacity="0.05" d="M92.339 118.65C92.339 118.65 88.4885 113.083 88.661 110.485C88.661 110.485 88.6202 110.808 88.5479 111.265C88.7223 113.981 92.224 119.055 92.224 119.055C94.9017 119.055 96.0986 117.158 96.6163 115.167C96.0448 117.001 94.8368 118.65 92.339 118.65Z" fill="black"/>
</g>
<path d="M82.4211 113.472C82.4211 113.472 85.932 115.406 87.1976 114.485C88.4632 113.565 87.6578 112.128 87.6578 112.128L86.6799 110.52H83.4046L82.3135 112.416L82.4211 113.472Z" fill="#7679B4"/>
<path d="M106.363 121.065C106.363 121.065 106.593 116.469 100.731 116.526C94.8688 116.584 100.501 116.526 100.501 116.526C100.501 116.526 98.2016 115.836 95.329 117.454C92.4564 119.072 89.1793 118.718 89.1793 118.718C89.1793 118.718 86.5349 123.086 89.0067 124.35C91.4785 125.613 92.282 123.88 92.282 123.88C92.282 123.88 97.3387 124.856 98.4892 123.535C99.3106 124.349 100.353 124.904 101.487 125.13C102.621 125.356 103.796 125.244 104.867 124.808C104.867 124.808 107.742 123.535 106.363 121.065Z" fill="#7679B4"/>
<defs>
<linearGradient id="paint0_linear_334_821" x1="101.161" y1="127.012" x2="101.161" y2="79.2897" gradientUnits="userSpaceOnUse">
<stop stop-color="#808080" stop-opacity="0.25"/>
<stop offset="0.54" stop-color="#808080" stop-opacity="0.12"/>
<stop offset="1" stop-color="#808080" stop-opacity="0.1"/>
</linearGradient>
</defs>
</svg>
