<svg width="121" height="79" viewBox="0 0 121 79" fill="none" xmlns="http://www.w3.org/2000/svg">
<path d="M60.4758 78.7479C82.1763 78.7479 99.7681 61.1515 99.7681 39.4452C99.7681 17.739 82.1763 0.142578 60.4758 0.142578C38.7753 0.142578 21.1836 17.739 21.1836 39.4452C21.1836 61.1515 38.7753 78.7479 60.4758 78.7479Z" fill="#42A5F5"/>
<path d="M61.1306 56.5601C94.1955 49.1602 120.718 35.4883 120.369 26.023C120.021 16.5576 92.9344 14.8832 59.8694 22.283C26.8045 29.6829 0.28231 43.3548 0.630557 52.8202C0.978804 62.2855 28.0656 63.9599 61.1306 56.5601Z" fill="#42A5F5"/>
<path fill-rule="evenodd" clip-rule="evenodd" d="M105.473 27.2723C104.814 24.3674 96.256 23.6154 83.7748 24.8533C78.9142 17.104 70.2972 11.9512 60.4763 11.9512C46.3778 11.9512 34.7603 22.5691 33.1755 36.2463C21.0165 40.5854 13.3431 45.0593 14.0133 48.0154C16.366 58.3942 108.059 38.6806 105.473 27.2724V27.2723Z" fill="white"/>
<path fill-rule="evenodd" clip-rule="evenodd" d="M60.4758 0.142578C78.3921 0.142578 93.5062 12.1378 98.2331 28.5368L87.347 33.6303L87.345 33.6308C84.6774 21.2389 73.6619 11.9508 60.4758 11.9508C45.295 11.9508 32.9886 24.2606 32.9886 39.4454C32.9886 41.4219 33.199 43.3491 33.5951 45.2073L33.5933 45.2076L21.5886 45.0896C21.3235 43.246 21.1836 41.3622 21.1836 39.4454C21.1836 17.7391 38.7753 0.142705 60.4758 0.142705V0.142578Z" fill="#42A5F5"/>
<path d="M44.8086 40.2809C47.4557 40.2809 49.6017 38.1345 49.6017 35.4866C49.6017 32.8388 47.4557 30.6924 44.8086 30.6924C42.1615 30.6924 40.0156 32.8388 40.0156 35.4866C40.0156 38.1345 42.1615 40.2809 44.8086 40.2809Z" fill="#42A5F5"/>
<path d="M60.2364 40.2809C62.8835 40.2809 65.0294 38.1345 65.0294 35.4866C65.0294 32.8388 62.8835 30.6924 60.2364 30.6924C57.5893 30.6924 55.4434 32.8388 55.4434 35.4866C55.4434 38.1345 57.5893 40.2809 60.2364 40.2809Z" fill="#42A5F5"/>
<path fill-rule="evenodd" clip-rule="evenodd" d="M99.4116 78.9994L88.5744 75.6726L77.7373 72.3457L85.2484 64.8325L92.7596 57.3193L96.0856 68.1594L99.4116 78.9994Z" fill="#42A5F5"/>
<path d="M18.6097 11.2457C21.7143 11.2457 24.231 8.72827 24.231 5.62286C24.231 2.51746 21.7143 0 18.6097 0C15.5051 0 12.9883 2.51746 12.9883 5.62286C12.9883 8.72827 15.5051 11.2457 18.6097 11.2457Z" fill="#42A5F5"/>
</svg>
