<svg width="54" height="60" viewBox="0 0 54 60" fill="none" xmlns="http://www.w3.org/2000/svg">
<path d="M52 49.0396C52 51.2472 51.3799 52.6556 50.4325 53.6467C49.4352 54.6899 47.8729 55.4827 45.6193 56.0307C41.4063 57.0553 35.6403 57.0485 28.848 57.0405C28.2401 57.0397 27.624 57.039 27 57.039C26.376 57.039 25.7599 57.0397 25.152 57.0405C18.3597 57.0485 12.5937 57.0553 8.38073 56.0307C6.12709 55.4827 4.56478 54.6899 3.56752 53.6467C2.62014 52.6556 2 51.2472 2 49.0396C2 44.581 4.58441 40.0074 9.13459 36.4749C13.6623 32.9597 19.9788 30.6201 27 30.6201C34.0212 30.6201 40.3377 32.9597 44.8654 36.4749C49.4156 40.0074 52 44.581 52 49.0396Z" stroke="#455154" stroke-width="4"/>
<circle cx="26.2397" cy="14.5493" r="12.5493" stroke="#455154" stroke-width="4"/>
</svg>
