<svg width="67" height="67" viewBox="0 0 67 67" fill="none" xmlns="http://www.w3.org/2000/svg">
<path d="M66.016 41.0231C66.5252 38.8302 66.8182 36.5555 66.8712 34.2205H65.4703V32.3268H66.864C66.7878 29.9976 66.4758 27.728 65.9465 25.5424L64.6238 25.8966L64.1347 24.0683L65.4543 23.7146C64.7845 21.5073 63.8968 19.3958 62.8094 17.4079L61.653 18.0757L60.7056 16.4363L61.8507 15.7752C60.6418 13.8341 59.2382 12.028 57.6699 10.3788L56.7576 11.2907L55.4184 9.9525L56.3271 9.04427C54.6703 7.4878 52.8579 6.09559 50.9112 4.90005L50.2738 6.00342L48.6339 5.0576L49.2698 3.95526C47.2819 2.88484 45.1704 2.01521 42.9672 1.36081L42.6418 2.57488L40.8114 2.08524L41.1363 0.8758C38.9594 0.364015 36.7012 0.0638443 34.3822 0V1.23879H32.4885V0C30.17 0.0638443 27.9118 0.364015 25.7344 0.876829L26.0593 2.08524L24.2289 2.57591L23.9056 1.36133C21.7009 2.01573 19.5904 2.88535 17.6035 3.95577L18.2378 5.05709L16.598 6.00394L15.9616 4.90056C14.0138 6.09559 12.2025 7.48832 10.5456 9.04478L11.4528 9.95147L10.1142 11.2907L9.20336 10.3788C7.63351 12.0274 6.23048 13.8341 5.02105 15.7747L6.16612 16.4353L5.21876 18.0751L4.06184 17.4074C2.97648 19.3953 2.0873 21.5068 1.41899 23.7135L2.73655 24.0667L2.24742 25.8961L0.924713 25.5418C0.395423 27.728 0.0834095 29.997 0.00823797 32.3263H1.39994V34.22H0C0.0535468 36.555 0.34754 38.8297 0.856234 41.0231L2.24742 40.6503L2.73655 42.4791L1.33455 42.8545C1.9869 45.0782 2.85806 47.2072 3.93363 49.2126L5.21824 48.4707L6.16561 50.1111L4.87276 50.8571C6.07499 52.8234 7.47854 54.6507 9.04736 56.322L10.1126 55.2567L11.4523 56.5959L10.3824 57.6648C12.0455 59.247 13.8676 60.6614 15.8267 61.877L16.5975 60.544L18.2373 61.4908L17.4619 62.8341C19.4663 63.9257 21.5979 64.8123 23.8247 65.479L24.2284 63.9725L26.0588 64.4621L25.6541 65.9676C27.8567 66.4923 30.1417 66.7976 32.488 66.863V65.3091H34.3817V66.863C36.7295 66.7976 39.0135 66.4923 41.2156 65.9676L40.8125 64.4621L42.6413 63.972L43.0455 65.479C45.2718 64.8123 47.4034 63.9257 49.4078 62.8341L48.6324 61.4903L50.2722 60.544L51.043 61.8775C53.0031 60.6619 54.8237 59.2475 56.4868 57.6648L55.4184 56.5954L56.7571 55.2567L57.8229 56.322C59.3922 54.6507 60.7947 52.8234 61.9975 50.8571L60.7046 50.1111L61.652 48.4712L62.9376 49.2131C64.0132 47.2077 64.8849 45.0787 65.5351 42.855L64.1337 42.4791L64.6228 40.6503L66.016 41.0231ZM33.4354 51.7376C23.3253 51.7376 15.129 43.5418 15.129 33.4318C15.129 23.3217 23.3253 15.126 33.4354 15.126C43.5464 15.126 51.7417 23.3217 51.7417 33.4318C51.7417 43.5418 43.5464 51.7376 33.4354 51.7376Z" fill="#455154"/>
<path d="M33.4353 18.2832C25.0681 18.2832 18.2852 25.0661 18.2852 33.4328C18.2852 41.7995 25.0681 48.5825 33.4353 48.5825C41.8025 48.5825 48.5849 41.7995 48.5849 33.4328C48.5849 25.0661 41.8025 18.2832 33.4353 18.2832ZM25.9084 39.9656C25.0032 40.4881 23.8458 40.1782 23.3227 39.2725C22.7991 38.3664 23.1106 37.2079 24.0152 36.6858C24.9208 36.1627 26.0798 36.4727 26.6019 37.3783C27.125 38.2845 26.8145 39.443 25.9084 39.9656ZM26.6019 29.4884C26.0793 30.3941 24.9203 30.704 24.0152 30.1814C23.1106 29.6583 22.7996 28.5003 23.3227 27.5947C23.8463 26.689 25.0037 26.3786 25.9084 26.9012C26.8145 27.4237 27.125 28.5822 26.6019 29.4884ZM33.4353 45.1107C32.3891 45.1107 31.5416 44.2627 31.5416 43.217C31.5416 42.1718 32.3891 41.3233 33.4353 41.3233C34.4815 41.3233 35.329 42.1713 35.329 43.217C35.329 44.2627 34.482 45.1107 33.4353 45.1107ZM33.4353 25.5424C32.3891 25.5424 31.5416 24.6944 31.5416 23.6487C31.5416 22.603 32.3891 21.755 33.4353 21.755C34.4815 21.755 35.329 22.603 35.329 23.6487C35.329 24.6944 34.482 25.5424 33.4353 25.5424ZM43.5484 39.272C43.0259 40.1777 41.8669 40.4881 40.9617 39.965C40.0566 39.4424 39.7461 38.284 40.2682 37.3783C40.7918 36.4727 41.9503 36.1627 42.8549 36.6853C43.7611 37.2084 44.0721 38.3664 43.5484 39.272ZM42.8554 30.1809C41.9503 30.7035 40.7918 30.3935 40.2687 29.4884C39.7461 28.5822 40.0571 27.4243 40.9622 26.9012C41.8674 26.3786 43.0264 26.6885 43.549 27.5947C44.0721 28.4998 43.7611 29.6583 42.8554 30.1809Z" fill="#455154"/>
</svg>
